<svg xmlns="http://www.w3.org/2000/svg" viewBox="0 0 1024 1024" id="Layer_1"><g id="XMLID_780_"><g id="XMLID_781_"><g id="XMLID_18_"><path d="m408.5 903.8h34.2 82.9 102.2 92.2 52.8c14.9 0 29.9-1.6 44.4-4.8 15.8-3.4 31.5-10 45.6-17.7 5-2.7 9.8-5.8 14.4-9.3 8.3-6.1 16.7-12.4 24.1-19.7 4.1-4 7.8-8.3 11.3-12.8 6.4-8.2 13-16.3 18.1-25.3 5.2-9.1 9.1-19 13-28.7 2.2-5.4 4-11 5.3-16.6 3.8-16 5.4-32.5 5.4-48.9 0-25.4 0-50.9 0-76.3 0-32.3 0-64.5 0-96.8 0-27.3 1-54.6-6.7-81.2-2.9-10.1-7.3-19.8-11.6-29.4-2.3-5.2-5.1-10.3-8.1-15.2-8.5-13.4-18.7-26.5-30.6-37.2-11.9-10.6-25-20.7-39.5-27.7-14.6-7.1-30.1-13.6-46.3-16.2-17.4-2.9-33.4-3.7-50.6-3.7-17.1 0-34.2 0-51.2 0-25.9 0-51.8 0-77.6 0-31.8 0-63.5 0-95.3 0-34.4 0-68.7 0-103.1 0-33.8 0-67.6 0-101.4 0-30 0-60.1 0-90.1 0-23.1 0-46.2 0-69.2 0-13 0-25.9 0-38.9 0-1.7 0-3.4 0-5.1 0-15.4 0-31.5 6.7-42.4 17.6-10.4 10.4-18.2 27.5-17.6 42.4.7 15.5 5.8 31.6 17.6 42.4 11.7 10.8 26.2 17.6 42.4 17.6h65.9 157.7 188.5 161.4c24.5 0 48.9-.1 73.4 0 5.2 0 10.4.3 15.6 1-5.3-.7-10.6-1.4-16-2.1 10.3 1.4 20.3 4.1 29.9 8.1-4.8-2-9.6-4-14.3-6 9.4 4 18.2 9.1 26.3 15.2-4-3.1-8.1-6.3-12.1-9.4 8.4 6.5 15.8 13.9 22.3 22.3-3.1-4-6.3-8.1-9.4-12.1 6.1 8.1 11.2 16.9 15.2 26.3-2-4.8-4-9.6-6-14.3 4 9.6 6.7 19.6 8.1 29.9-.7-5.3-1.4-10.6-2.1-16 1.3 10.7 1 21.6 1 32.3v52.4 119.7c0 12.5.6 25.1-1 37.5.7-5.3 1.4-10.6 2.1-16-1.4 10.3-4.1 20.3-8.1 29.9 2-4.8 4-9.6 6-14.3-4 9.4-9.1 18.2-15.2 26.3 3.1-4 6.3-8.1 9.4-12.1-6.5 8.4-13.9 15.8-22.3 22.3 4-3.1 8.1-6.3 12.1-9.4-8.1 6.1-16.9 11.2-26.3 15.2 4.8-2 9.6-4 14.3-6-9.6 4-19.6 6.7-29.9 8.1 5.3-.7 10.6-1.4 16-2.1-15.3 1.9-31.1 1-46.4 1-28.9 0-57.9 0-86.8 0-36 0-72.1 0-108.1 0-31.6 0-63.1 0-94.7 0-15.5 0-31.1-.2-46.6 0-.2 0-.4 0-.6 0-15.4 0-31.5 6.7-42.4 17.6-10.4 10.4-18.2 27.5-17.6 42.4.7 15.5 5.8 31.6 17.6 42.4 11.8 10.6 26.3 17.4 42.5 17.4z" id="XMLID_22_"></path></g></g><g id="XMLID_782_"><g id="XMLID_12_"><path d="m303.1 137.8c-24.3 24.3-48.7 48.7-73 73-38.8 38.8-77.6 77.6-116.4 116.4-8.9 8.9-17.9 17.9-26.8 26.8-22.9 22.9-22.9 61.9 0 84.9 24.3 24.4 48.7 48.7 73 73.1 38.8 38.9 77.6 77.7 116.4 116.6 8.9 8.9 17.9 17.9 26.8 26.8 10.9 10.9 27.1 17.6 42.4 17.6 14.7 0 32.3-6.5 42.4-17.6 10.5-11.4 18.3-26.4 17.6-42.4-.7-15.9-6.1-30.9-17.6-42.4-24.3-24.4-48.7-48.7-73-73.1-38.8-38.9-77.6-77.7-116.4-116.6-8.9-8.9-17.9-17.9-26.8-26.8v84.9c24.3-24.3 48.7-48.7 73-73 38.8-38.8 77.6-77.6 116.4-116.4 8.9-8.9 17.9-17.9 26.8-26.8 10.9-10.9 17.6-27 17.6-42.4 0-14.7-6.5-32.3-17.6-42.4-11.4-10.5-26.4-18.3-42.4-17.6-15.9.6-30.9 5.9-42.4 17.4z" id="XMLID_16_"></path></g></g></g></svg>